<svg width="125" height="46" viewBox="0 0 125 46" fill="none" xmlns="http://www.w3.org/2000/svg">
<path d="M11.5721 25.8766V25.0337H0.91043V7.98047H0V25.8766H11.5721Z" fill="white" stroke="white" stroke-width="0.002"/>
<path d="M26.6816 25.7713L26.7233 25.8766H27.7116L27.6204 25.6477L20.6262 8.08571L20.5841 7.98047H19.5982L19.5561 8.08571L12.5619 25.6477L12.4707 25.8766H13.4332L13.475 25.771L16.1315 19.0301H23.999L26.6816 25.7713ZM23.6317 18.1615H16.4731L20.0771 9.0863L23.6317 18.1615Z" fill="white" stroke="white" stroke-width="0.002"/>
<path d="M33.3796 25.8766H34.3919L34.434 25.7713L41.4282 8.20932L41.5193 7.98047H40.5308L40.489 8.08604L33.8859 24.7721L27.2824 8.08604L27.2407 7.98047H26.2524L26.3433 8.20932L33.3378 25.7713L33.3796 25.8766Z" fill="white" stroke="white" stroke-width="0.002"/>
<path d="M85.9915 7.98047H80.6084V25.8766H85.9898C86.8284 25.8766 87.3862 25.8766 88.312 25.774L88.3127 25.7737C90.8152 25.486 95.219 23.139 95.219 16.8522C95.219 13.7037 94.1086 11.5465 92.6324 10.1514C91.1608 8.76056 89.3356 8.13616 87.9132 8.03192C87.2523 7.98047 86.8271 7.98047 85.9915 7.98047ZM88.1958 24.9074H88.1954C87.3414 25.0079 86.7997 25.0079 85.9885 25.0079H81.5188V8.8491H85.9885C86.9327 8.8491 87.292 8.8491 87.8598 8.89921C89.2511 9.02349 90.8502 9.65692 92.1003 10.9338C93.3477 12.2077 94.2565 14.1307 94.2565 16.8522C94.2565 22.0376 90.9655 24.5863 88.1958 24.9074Z" fill="white" stroke="white" stroke-width="0.002"/>
<path d="M109.96 25.8766V25.0337H99.2983V17.35H109.174V16.5071H99.2983V8.82371H109.698V7.98047H98.3882V25.8766H109.96Z" fill="white" stroke="white" stroke-width="0.002"/>
<path d="M113.879 25.8766V17.2738H117.93C118.35 17.2738 119 17.2738 119.573 17.2992C120.621 17.3476 121.354 17.805 121.859 18.4825C122.369 19.1664 122.651 20.0825 122.767 21.0463V21.047C123.056 23.3863 123.435 24.45 123.798 25.4716C123.833 25.5692 123.868 25.6668 123.902 25.765L123.941 25.8766H125L124.893 25.6404C124.403 24.5633 124.014 23.4858 123.702 20.8796C123.488 19.0374 122.719 17.5391 121.303 16.8909C122.254 16.6317 123.034 16.1579 123.602 15.5118C124.28 14.7401 124.646 13.7325 124.646 12.5762C124.646 11.2793 124.24 10.2402 123.458 9.48453C122.681 8.73183 121.548 8.27714 120.124 8.10876C119.276 8.00586 118.43 7.98047 117.511 7.98047H112.969V25.8766H113.879ZM113.879 16.4052V8.8491H117.511C118.45 8.8491 119.15 8.87449 119.979 8.97505C121.189 9.12506 122.113 9.49789 122.732 10.0912C123.349 10.6806 123.683 11.5054 123.683 12.6016C123.683 13.6566 123.324 14.548 122.677 15.1978C122.03 15.8479 121.081 16.2679 119.883 16.3547C119.051 16.4052 118.609 16.4052 117.93 16.4052H113.879Z" fill="white" stroke="white" stroke-width="0.002"/>
<path d="M59.6415 16.3881C59.8372 16.2484 60.0186 16.1783 60.1862 16.1783C60.3539 16.1783 60.4377 16.2762 60.4377 16.4719V16.5558C57.5317 18.9596 55.1147 20.7623 53.1867 21.9644C51.2589 23.1664 49.5125 23.7671 47.9475 23.7671C46.6901 23.7671 46.0615 23.1524 46.0615 21.9226C46.0615 20.1055 46.9836 18.247 48.8279 16.346C50.6721 14.4176 52.2228 13.4531 53.4802 13.4531C54.1786 13.4531 54.5279 13.8443 54.5279 14.6271C54.3883 16.1646 52.1807 18.2329 47.9058 20.8325V21.2517C47.9058 22.1738 48.3807 22.6352 49.3309 22.6352C50.3087 22.6352 51.3564 22.3138 52.4743 21.671C54.6538 20.3851 56.6934 18.9178 58.5935 17.2684L59.6415 16.3881ZM52.3904 14.7531C51.7756 14.7531 50.9794 15.2699 50.0015 16.3042C49.0513 17.3386 48.4087 18.5122 48.0734 19.8262C49.4147 19.0154 50.5462 18.1631 51.4683 17.2684C52.3904 16.346 52.8513 15.7032 52.8513 15.3401C52.8513 14.9485 52.6977 14.7531 52.3904 14.7531Z" fill="white"/>
<path d="M76.6925 16.513C70.7964 21.4325 67.15 23.8924 65.753 23.8924C64.9427 23.8924 64.5376 23.5569 64.5376 22.8861C64.5376 22.2152 64.8308 21.4188 65.4176 20.4964C66.0325 19.5739 66.633 18.7631 67.2198 18.0645C67.8347 17.3379 68.1419 16.9046 68.1419 16.7646C68.1419 16.6249 68.1002 16.5551 68.0163 16.5551C65.4176 18.288 63.867 19.3501 63.364 19.7417C62.8887 20.1329 62.0925 20.7757 60.9747 21.6703C59.8849 22.5647 59.1725 23.1236 58.8372 23.3471C58.5019 23.571 58.1385 23.6826 57.7474 23.6826C57.3564 23.6826 57.1606 23.5148 57.1606 23.1794C57.1606 22.7882 57.9432 21.5584 59.5079 19.4901C61.0168 17.4217 61.7712 16.2615 61.7712 16.0099C61.7712 15.9541 61.7151 15.926 61.6036 15.926C61.5198 15.926 60.3181 16.7786 57.9989 18.4838L57.8313 17.8547C59.8151 16.2615 61.1564 15.2415 61.8551 14.7941C62.5534 14.3468 63.1125 14.1233 63.5317 14.1233C63.9785 14.1233 64.2023 14.3331 64.2023 14.7524C64.2023 15.0317 63.4057 16.1776 61.813 18.1901C60.2483 20.1746 59.4658 21.2511 59.4658 21.4188C59.4658 21.5584 59.5079 21.6282 59.5917 21.6282C59.7036 21.6282 61.296 20.5101 64.3699 18.274C67.4713 16.0099 69.3576 14.878 70.0282 14.878C70.2236 14.878 70.4053 14.9619 70.573 15.1296C70.7687 15.2692 70.8665 15.4092 70.8665 15.5488C70.8665 15.8843 70.1258 17.0025 68.6449 18.9031C67.164 20.7757 66.4236 21.8381 66.4236 22.0893C66.4236 22.3409 66.5912 22.4668 66.9266 22.4668C67.2896 22.4668 68.0441 22.0893 69.1899 21.3349C71.2853 19.9652 73.2134 18.5536 74.9738 17.1L75.8959 16.3453C76.0916 16.2057 76.2733 16.1358 76.441 16.1358C76.6087 16.1358 76.6925 16.2197 76.6925 16.3874V16.513Z" fill="white"/>
<path d="M56.4441 7.85106C56.3008 8.06221 55.7401 8.98897 55.7401 8.98897C55.7401 8.98897 55.7074 8.65488 55.7401 8.10731C55.7728 7.56007 55.9859 6.93199 56.0921 6.59055C56.1983 6.24945 56.4364 5.77137 56.7697 5.18872C57.1034 4.60607 57.582 4.08356 57.917 3.77185C58.2523 3.46015 59.4743 2.49364 59.6183 2.39107C59.7622 2.28851 61.8128 0.955491 61.8128 0.955491C61.8128 0.955491 62.1692 0.618062 62.2888 0.501132C62.4083 0.384201 62.6568 0 62.6568 0C62.6568 0 62.6418 0.772747 62.6568 1.13857C62.6815 1.74327 62.6271 2.22803 62.5463 2.7736C62.4651 3.31916 62.3713 3.69468 62.1699 4.22153C61.9681 4.74872 61.7661 5.1944 61.4204 5.71557C61.0744 6.23675 60.5951 6.65102 60.32 6.91763C60.0448 7.18423 59.2178 7.84839 58.7987 8.21756C58.3795 8.58673 56.8102 9.83087 56.5467 10.0774C56.2831 10.3243 55.877 10.8091 55.7935 10.9481C55.71 11.087 55.3881 11.5955 55.3527 11.7365C55.3176 11.8772 55.3817 11.6603 55.7401 10.8579C56.0984 10.0554 56.9751 8.69798 57.4461 8.10731C57.917 7.51698 59.3694 5.87894 59.6169 5.51245C59.8644 5.14595 59.7839 4.67723 59.7839 4.67723C59.7839 4.67723 58.4944 5.46868 57.8365 6.18062C57.1785 6.89257 56.5874 7.63992 56.4441 7.85106Z" fill="white"/>
<path d="M56.4441 7.85106C56.3008 8.06221 55.7401 8.98897 55.7401 8.98897C55.7401 8.98897 55.7074 8.65488 55.7401 8.10731C55.7728 7.56007 55.9859 6.93199 56.0921 6.59055C56.1983 6.24945 56.4364 5.77137 56.7697 5.18872C57.1034 4.60607 57.582 4.08356 57.917 3.77185C58.2523 3.46015 59.4743 2.49364 59.6183 2.39107C59.7622 2.28851 61.8128 0.955491 61.8128 0.955491C61.8128 0.955491 62.1692 0.618062 62.2888 0.501132C62.4083 0.384201 62.6568 0 62.6568 0C62.6568 0 62.6418 0.772747 62.6568 1.13857C62.6815 1.74327 62.6271 2.22803 62.5463 2.7736C62.4651 3.31916 62.3713 3.69468 62.1699 4.22153C61.9681 4.74872 61.7661 5.1944 61.4204 5.71557C61.0744 6.23675 60.5951 6.65102 60.32 6.91763C60.0448 7.18423 59.2178 7.84839 58.7987 8.21756C58.3795 8.58673 56.8102 9.83087 56.5467 10.0774C56.2831 10.3243 55.877 10.8091 55.7935 10.9481C55.71 11.087 55.3881 11.5955 55.3527 11.7365C55.3176 11.8772 55.3817 11.6603 55.7401 10.8579C56.0984 10.0554 56.9751 8.69798 57.4461 8.10731C57.917 7.51698 59.3694 5.87894 59.6169 5.51245C59.8644 5.14595 59.7839 4.67723 59.7839 4.67723C59.7839 4.67723 58.4944 5.46868 57.8365 6.18062C57.1785 6.89257 56.5874 7.63992 56.4441 7.85106Z" fill="white"/>
<path d="M56.4441 7.85106C56.3008 8.06221 55.7401 8.98897 55.7401 8.98897C55.7401 8.98897 55.7074 8.65488 55.7401 8.10731C55.7728 7.56007 55.9859 6.93199 56.0921 6.59055C56.1983 6.24945 56.4364 5.77137 56.7697 5.18872C57.1034 4.60607 57.582 4.08356 57.917 3.77185C58.2523 3.46015 59.4743 2.49364 59.6183 2.39107C59.7622 2.28851 61.8128 0.955491 61.8128 0.955491C61.8128 0.955491 62.1692 0.618062 62.2888 0.501132C62.4083 0.384201 62.6568 0 62.6568 0C62.6568 0 62.6418 0.772747 62.6568 1.13857C62.6815 1.74327 62.6271 2.22803 62.5463 2.7736C62.4651 3.31916 62.3713 3.69468 62.1699 4.22153C61.9681 4.74872 61.7661 5.1944 61.4204 5.71557C61.0744 6.23675 60.5951 6.65102 60.32 6.91763C60.0448 7.18423 59.2178 7.84839 58.7987 8.21756C58.3795 8.58673 56.8102 9.83087 56.5467 10.0774C56.2831 10.3243 55.877 10.8091 55.7935 10.9481C55.71 11.087 55.3881 11.5955 55.3527 11.7365C55.3176 11.8772 55.3817 11.6603 55.7401 10.8579C56.0984 10.0554 56.9751 8.69798 57.4461 8.10731C57.917 7.51698 59.3694 5.87894 59.6169 5.51245C59.8644 5.14595 59.7839 4.67723 59.7839 4.67723C59.7839 4.67723 58.4944 5.46868 57.8365 6.18062C57.1785 6.89257 56.5874 7.63992 56.4441 7.85106Z" fill="white" stroke="white" stroke-width="0.002"/>
<path d="M27.1434 45.4067C27.6327 45.4067 28.0418 45.2697 28.3705 44.9958C28.7031 44.7178 28.8831 44.3593 28.9105 43.921H29.5858C29.5661 44.3085 29.4449 44.663 29.2218 44.9841C28.9987 45.3011 28.7014 45.5497 28.3294 45.7297C27.9617 45.9098 27.5662 46 27.1434 46C26.3098 46 25.6485 45.71 25.1592 45.1307C24.674 44.5514 24.4312 43.7723 24.4312 42.7935V42.582C24.4312 41.9556 24.5407 41.4016 24.7601 40.9199C24.9792 40.4385 25.2922 40.0666 25.6993 39.8044C26.1104 39.5418 26.5897 39.4108 27.1377 39.4108C27.8344 39.4108 28.4079 39.6183 28.8577 40.0332C29.3119 40.4482 29.5544 40.9944 29.5858 41.6716H28.9105C28.8794 41.1745 28.6994 40.7732 28.3705 40.4679C28.0458 40.1625 27.6347 40.0098 27.1377 40.0098C26.5035 40.0098 26.0105 40.2387 25.6582 40.6971C25.3099 41.1551 25.1359 41.7969 25.1359 42.6231V42.8285C25.1359 43.639 25.3099 44.2715 25.6582 44.7255C26.0105 45.1795 26.5055 45.4067 27.1434 45.4067ZM41.0163 45.8824C40.9458 45.6826 40.9007 45.3873 40.881 44.9958C40.6345 45.3168 40.3196 45.5654 39.9359 45.7414C39.5561 45.9138 39.153 46 38.7265 46C38.116 46 37.621 45.8296 37.2413 45.4889C36.8656 45.1484 36.6775 44.7178 36.6775 44.197C36.6775 43.5786 36.934 43.0891 37.4467 42.729C37.9634 42.3685 38.6814 42.1884 39.6012 42.1884H40.8753V41.4661C40.8753 41.0121 40.7344 40.6556 40.4525 40.3974C40.1747 40.1351 39.7675 40.0038 39.2315 40.0038C38.7422 40.0038 38.3371 40.1291 38.0161 40.3797C37.6952 40.6302 37.5349 40.9319 37.5349 41.284L36.8302 41.2784C36.8302 40.7732 37.065 40.3366 37.5349 39.9687C38.0044 39.5969 38.5816 39.4108 39.2666 39.4108C39.9749 39.4108 40.5327 39.5889 40.9398 39.9454C41.3506 40.2975 41.562 40.7909 41.5737 41.425V44.4318C41.5737 45.0465 41.6385 45.5066 41.7677 45.8119V45.8824H41.0163ZM38.8087 45.3773C39.2783 45.3773 39.6971 45.2637 40.0651 45.0368C40.4368 44.8097 40.707 44.5063 40.8753 44.1265V42.729H39.6189C38.9182 42.7367 38.3705 42.866 37.9751 43.1165C37.5796 43.3631 37.3822 43.7038 37.3822 44.1382C37.3822 44.4946 37.5132 44.79 37.7753 45.0252C38.0415 45.26 38.3862 45.3773 38.8087 45.3773ZM50.1333 39.5281L50.157 40.6145C50.3958 40.2233 50.693 39.9256 51.0494 39.7222C51.4054 39.5144 51.7988 39.4108 52.2293 39.4108C52.9103 39.4108 53.417 39.6026 53.75 39.9864C54.0826 40.37 54.2509 40.9456 54.2546 41.713V45.8824H53.5559V41.707C53.5522 41.1394 53.4307 40.7164 53.1922 40.4385C52.9571 40.1605 52.5797 40.0215 52.059 40.0215C51.6245 40.0215 51.2391 40.1585 50.9024 40.4328C50.5698 40.7027 50.3233 41.0689 50.1627 41.5309V45.8824H49.464V39.5281H50.1333ZM61.8046 42.6465C61.8046 41.6599 62.0236 40.8751 62.4618 40.2918C62.9044 39.7045 63.5032 39.4108 64.2583 39.4108C65.1156 39.4108 65.7692 39.7496 66.2191 40.4268V36.8621H66.9178V45.8824H66.2602L66.2311 45.0368C65.7809 45.679 65.1193 46 64.2466 46C63.5149 46 62.9237 45.7064 62.4739 45.119C62.0277 44.5277 61.8046 43.7312 61.8046 42.729V42.6465ZM62.5149 42.7701C62.5149 43.5802 62.6772 44.2203 63.0022 44.6904C63.3268 45.1561 63.7847 45.389 64.3759 45.389C65.2409 45.389 65.8554 45.0075 66.2191 44.2441V41.2607C65.8554 40.4345 65.2446 40.0215 64.3876 40.0215C63.7968 40.0215 63.3369 40.2544 63.0079 40.7204C62.6793 41.1825 62.5149 41.8657 62.5149 42.7701ZM75.5655 45.8824H74.8609V36.8621H75.5655V45.8824ZM85.951 46C85.4106 46 84.9213 45.8667 84.4832 45.6005C84.0487 45.3342 83.7103 44.9644 83.4675 44.4906C83.2247 44.0129 83.1035 43.4787 83.1035 42.8873V42.6348C83.1035 42.024 83.221 41.4741 83.4558 40.9847C83.6946 40.4953 84.0253 40.1117 84.4481 39.8338C84.8706 39.5518 85.3285 39.4108 85.8218 39.4108C86.5926 39.4108 87.2034 39.6751 87.6533 40.2036C88.1075 40.7281 88.3343 41.4467 88.3343 42.3588V42.7524H83.8022V42.8873C83.8022 43.6076 84.0076 44.2087 84.4187 44.6904C84.8335 45.1678 85.3539 45.4067 85.9801 45.4067C86.3558 45.4067 86.6868 45.3382 86.9723 45.2012C87.2619 45.0642 87.5241 44.8451 87.7592 44.5434L88.1994 44.8782C87.6827 45.6258 86.9332 46 85.951 46ZM85.8218 40.0098C85.2934 40.0098 84.8472 40.2036 84.4832 40.5911C84.1231 40.9787 83.904 41.4995 83.8256 42.1533H87.6356V42.0768C87.6162 41.4661 87.4419 40.969 87.1133 40.5855C86.7846 40.2016 86.3541 40.0098 85.8218 40.0098ZM99.5183 44.2674C99.5183 43.919 99.3773 43.639 99.0955 43.4276C98.8176 43.2164 98.3968 43.0517 97.8334 42.9344C97.2696 42.8128 96.8314 42.6759 96.5181 42.5232C96.2089 42.3668 95.9781 42.1767 95.8255 41.9536C95.6768 41.7304 95.6024 41.4604 95.6024 41.1431C95.6024 40.6419 95.8118 40.229 96.2306 39.9039C96.6494 39.5752 97.1854 39.4108 97.839 39.4108C98.5474 39.4108 99.1152 39.5869 99.5417 39.9393C99.9722 40.2878 100.187 40.7438 100.187 41.3078H99.4829C99.4829 40.9356 99.3262 40.6266 99.0133 40.3797C98.704 40.1331 98.3126 40.0098 97.839 40.0098C97.3771 40.0098 97.0054 40.1134 96.7235 40.3212C96.4457 40.5247 96.3067 40.7909 96.3067 41.1197C96.3067 41.4367 96.4223 41.6836 96.6531 41.8597C96.8882 42.0321 97.3127 42.1904 97.9272 42.3354C98.5454 42.4801 99.0073 42.6348 99.3126 42.7991C99.6218 42.9638 99.8509 43.1613 99.9995 43.3925C100.148 43.6233 100.223 43.9033 100.223 44.2324C100.223 44.7686 100.006 45.1972 99.5711 45.5183C99.1406 45.8393 98.5768 46 97.8801 46C97.1403 46 96.5398 45.8216 96.078 45.4655C95.6201 45.1053 95.391 44.651 95.391 44.1031H96.0957C96.123 44.514 96.295 44.8351 96.612 45.0663C96.9329 45.2931 97.3558 45.4067 97.8801 45.4067C98.3694 45.4067 98.7648 45.2991 99.0661 45.0836C99.3673 44.8685 99.5183 44.5962 99.5183 44.2674Z" fill="white"/>
</svg>
