<svg width="24" height="435" viewBox="0 0 24 435" fill="none" xmlns="http://www.w3.org/2000/svg">
<path d="M17.1949 2.06553C15.1929 2.05483 13.2896 2.93409 12 4.4655C10.7184 2.92363 8.80988 2.04186 6.80503 2.06553C3.0467 2.06553 0 5.11223 0 8.87055C0 15.3111 11.2405 21.5997 11.6962 21.8427C11.8801 21.9656 12.1199 21.9656 12.3038 21.8427C12.7595 21.5997 24 15.4022 24 8.87055C24 5.11223 20.9532 2.06553 17.1949 2.06553ZM12 20.6275C10.238 19.5946 1.21519 14.0959 1.21519 8.87055C1.21519 5.78338 3.71785 3.28066 6.80508 3.28066C8.69561 3.25583 10.4648 4.20941 11.4836 5.80216C11.6904 6.08738 12.0893 6.15094 12.3746 5.94405C12.4291 5.90451 12.477 5.85665 12.5164 5.80216C14.206 3.21833 17.6702 2.49333 20.2541 4.18284C21.8358 5.21713 22.7879 6.9806 22.7848 8.8705C22.7848 14.1566 13.762 19.625 12 20.6275Z" fill="#1B1C1E"/>
<g clip-path="url(#clip0)">
<path d="M19.7999 435H4.19995C3.70995 435 3.24395 434.789 2.92195 434.42C2.59895 434.051 2.44995 433.562 2.51495 433.076L4.59495 417.476C4.70695 416.634 5.43195 416 6.27995 416H17.7199C18.569 416 19.2929 416.634 19.406 417.476L21.486 433.076C21.5499 433.562 21.402 434.052 21.079 434.42C20.756 434.789 20.2899 435 19.7999 435ZM6.27995 417C5.92995 417 5.63295 417.261 5.58695 417.607L3.50695 433.207C3.47995 433.41 3.53895 433.606 3.67395 433.761C3.80895 433.915 3.99495 434 4.19995 434H19.7999C20.0049 434 20.1919 433.915 20.326 433.761C20.461 433.607 20.52 433.41 20.493 433.207L18.413 417.607C18.367 417.261 18.0689 417 17.7199 417H6.27995Z" fill="#1B1C1E"/>
<path d="M14.5 419C14.224 419 14 418.776 14 418.5V414C14 412.897 13.103 412 12 412C10.897 412 10 412.897 10 414V418.5C10 418.776 9.776 419 9.5 419C9.224 419 9 418.776 9 418.5V414C9 412.346 10.346 411 12 411C13.654 411 15 412.346 15 414V418.5C15 418.776 14.776 419 14.5 419Z" fill="#1B1C1E"/>
</g>
<defs>
<clipPath id="clip0">
<rect width="24" height="24" fill="white" transform="translate(0 411)"/>
</clipPath>
</defs>
</svg>
